<?xml version="1.0" encoding="UTF-8"?>
<svg width="17px" height="17px" viewBox="0 0 17 17" version="1.1" xmlns="http://www.w3.org/2000/svg" xmlns:xlink="http://www.w3.org/1999/xlink">
    <!-- Generator: Sketch 56.2 (81672) - https://sketch.com -->
    <title>Shape</title>
    <desc>Created with Sketch.</desc>
    <g id="Page_New" stroke="none" stroke-width="1" fill="none" fill-rule="evenodd">
        <g id="home-" transform="translate(-1348.000000, -37.000000)" fill="#FFFFFF" fill-rule="nonzero">
            <g id="Group-4" transform="translate(1348.000000, 33.000000)">
                <g id="phone-volume" transform="translate(0.000000, 4.000000)">
                    <path d="M14.805656,9.38404646 C14.6185414,9.38404646 14.4229216,9.32432981 14.235807,9.28167505 C13.8571871,9.19675705 13.4848987,9.08558765 13.1216245,8.94896795 C12.3044867,8.65079519 11.3947045,9.01875317 11.0123326,9.80206308 L10.825218,10.1944868 C9.999211,9.72460541 9.2361271,9.15127698 8.55432709,8.48829657 C7.89334721,7.80443301 7.32174878,7.03903956 6.85328521,6.21053257 L7.24452484,6.03138259 C8.02547113,5.64785338 8.39231881,4.73531759 8.09504578,3.91570666 C7.95997264,3.54804875 7.84916554,3.17187424 7.76334261,2.78962109 C7.72081657,2.60194016 7.68679573,2.40572828 7.6612801,2.21804735 C7.44789958,0.976599835 6.36554482,0.0755264128 5.10971729,0.0938404646 L2.54964926,0.0938404646 C1.82240521,0.0928849587 1.12931152,0.403238269 0.644482364,0.946935598 C0.149323369,1.50569903 -0.0775033673,2.2536878 0.0236020789,2.99436392 C0.485934537,6.54506374 2.10330426,9.84356902 4.62492035,12.3784104 C7.15211289,14.9076584 10.440665,16.5299233 13.9806507,16.9936551 C14.0910575,17.002115 14.201947,17.002115 14.3123538,16.9936551 C14.9395408,16.994578 15.5450963,16.7637704 16.0133957,16.3453028 C16.5554524,15.8590062 16.8648693,15.1638148 16.8639188,14.4343697 L16.8639188,11.8750843 C16.8544596,10.6599071 15.9943524,9.61895084 14.805656,9.38404646 Z M15.2224112,14.5026173 C15.221844,14.7433421 15.119906,14.9726222 14.9417393,15.1339077 C14.7529724,15.3064102 14.4969201,15.3847112 14.2443122,15.3471814 C11.0704007,14.9314064 8.12077366,13.4806056 5.8496705,11.218201 C3.57662925,8.93827401 2.11760991,5.96941978 1.69912833,2.77255918 C1.66171185,2.51918667 1.73977655,2.26235946 1.91175856,2.07302117 C2.07453892,1.89210019 2.30669004,1.78964454 2.54964926,1.79149978 L5.10121208,1.79149978 C5.50662129,1.78156153 5.86263742,2.06009458 5.95173302,2.45691398 C5.95173302,2.68724967 6.0282799,2.92611631 6.07931116,3.15645199 C6.17761088,3.60335738 6.30837304,4.04245131 6.47055079,4.4702185 L5.27982148,5.03326129 C5.07515567,5.12749669 4.91610458,5.2993009 4.83755059,5.51099456 C4.75248317,5.71869026 4.75248317,5.95165116 4.83755059,6.15934686 C6.06162085,8.78923022 8.16924941,10.9032377 10.7911972,12.1310128 C10.9982661,12.2163377 11.2305241,12.2163377 11.4375931,12.1310128 C11.6486479,12.0522211 11.8199337,11.8926886 11.9138848,11.6874033 L12.449713,10.4930701 C12.8885046,10.6535558 13.3374323,10.7846519 13.7935361,10.8854939 C14.0146715,10.9366796 14.2528174,10.9793344 14.482458,11.0134582 C14.87808,11.1028234 15.1557726,11.4599171 15.1458644,11.8665533 L15.2224112,14.5026173 Z M10.2043377,0 C10.0087179,0 9.80459287,0 9.60897305,0 C9.13924331,0.0400478783 8.79081938,0.454456791 8.8307464,0.925608218 C8.87067343,1.39675965 9.28383187,1.74623813 9.75356161,1.70619027 L10.2043377,1.70619027 C13.0227162,1.70619027 15.3074633,3.99785247 15.3074633,6.82476107 C15.3074633,6.97831819 15.3074633,7.12334436 15.3074633,7.27690149 C15.2682013,7.74548509 15.6143775,8.15757495 16.0814374,8.19825137 L16.1494791,8.19825137 C16.5908698,8.2000406 16.9602781,7.86286161 17,7.42192766 C17,7.22571578 17,7.02097295 17,6.82476107 C17,3.05887864 13.9588537,0.00470735303 10.2043377,0 Z M11.9053796,6.82476107 C11.9053796,7.2959125 12.2861708,7.6778562 12.7559005,7.6778562 C13.2256303,7.6778562 13.6064215,7.2959125 13.6064215,6.82476107 C13.6064215,4.94015534 12.0832567,3.41238053 10.2043377,3.41238053 C9.73460796,3.41238053 9.35381677,3.79432423 9.35381677,4.26547567 C9.35381677,4.7366271 9.73460796,5.1185708 10.2043377,5.1185708 C11.1437972,5.1185708 11.9053796,5.8824582 11.9053796,6.82476107 Z" id="Shape"></path>
                </g>
            </g>
        </g>
    </g>
</svg>